<svg width="104" height="48" viewBox="0 0 104 48" fill="none" xmlns="http://www.w3.org/2000/svg">
<g opacity="0.64">
<rect x="60" y="2" width="43.9999" height="43.9999" rx="22" fill="#565ED1"/>
<path d="M71.9167 22.9176L80.9418 15.3251C81.2803 15.0404 81.774 15.0385 82.1147 15.3206L91.2884 22.9176" stroke="white" stroke-width="1.375" stroke-linecap="round"/>
<path d="M89.6106 21.5445V31.1541C89.6106 31.6595 89.2009 32.0693 88.6954 32.0693H86.3113" stroke="white" stroke-width="1.375" stroke-linecap="round"/>
<path d="M82.5032 31.1546V26.9626C82.5032 26.717 82.4044 26.4816 82.2291 26.3096L79.4095 23.5414C79.0535 23.1919 78.4831 23.1919 78.1271 23.5414L75.3075 26.3096C75.1322 26.4816 75.0334 26.717 75.0334 26.9626V31.1546C75.0334 31.66 75.4432 32.0698 75.9486 32.0698H81.588C82.0934 32.0698 82.5032 31.66 82.5032 31.1546Z" fill="white" stroke="white" stroke-width="1.375"/>
<path d="M73.291 27.4933L78.2872 22.9011C78.6483 22.5691 79.2069 22.5809 79.5537 22.9278L84.1179 27.4933" stroke="white" stroke-width="1.375" stroke-linecap="round"/>
</g>
<g opacity="0.64">
<rect y="2.00006" width="43.9999" height="43.9999" rx="22" fill="#77CDD9"/>
<path d="M11.9167 17.9972C11.9167 17.6306 12.2139 17.3334 12.5805 17.3334H15.8214V21.5505C15.8214 21.9171 15.5242 22.2143 15.1576 22.2143H12.5805C12.2139 22.2143 11.9167 21.9171 11.9167 21.5505V17.9972Z" fill="white" stroke="white" stroke-width="1.375"/>
<path d="M30.0934 19.5843L27.6798 17.4953C27.5591 17.3909 27.4049 17.3334 27.2453 17.3334H15.8215V20.75H29.6589C30.2736 20.75 30.5581 19.9866 30.0934 19.5843Z" stroke="white" stroke-width="1.375"/>
<path opacity="0.8" d="M22.5374 33.1669V21.2186" stroke="white" stroke-width="1.375" stroke-linecap="round"/>
<path opacity="0.8" d="M18.5547 33.1669V21.2186" stroke="white" stroke-width="1.375" stroke-linecap="round"/>
<rect opacity="0.8" x="24.5288" y="27.8565" width="5.31034" height="5.31034" rx="0.916667" fill="white"/>
<path d="M26.8521 30.5116H27.5158" stroke="#77CDD9" stroke-width="0.916667" stroke-linecap="round" stroke-linejoin="round"/>
<rect x="25.1929" y="23.678" width="3.90466" height="1.95233" rx="0.976166" fill="white" stroke="white" stroke-width="1.375"/>
<path d="M27.1453 23.1901V20.9937" stroke="white" stroke-width="1.375"/>
<path opacity="0.8" d="M15.8215 17.3335L18.751 14.4039C19.0171 14.1379 19.4508 14.1459 19.7068 14.4216L22.4107 17.3335" stroke="white" stroke-width="1.375"/>
</g>
<rect x="27.9998" width="47.9999" height="47.9999" rx="24" fill="#F7D16D"/>
<rect x="27.9998" y="6.10352e-05" width="47.9999" height="47.9999" rx="24" fill="#F7D16D"/>
<rect x="27.9998" y="6.10352e-05" width="47.9999" height="47.9999" rx="24" fill="#5AA5FA"/>
<path d="M43.4998 22.2048V33.0001C43.4998 33.2762 43.7236 33.5001 43.9998 33.5001H49.4998C50.052 33.5001 50.4998 33.0523 50.4998 32.5001V20.4191C50.4998 19.7275 49.8147 19.2447 49.1634 19.4773L44.1634 21.263C43.7654 21.4052 43.4998 21.7822 43.4998 22.2048Z" fill="#C2DEFF"/>
<path d="M61.4998 22.2048V33.0001C61.4998 33.2762 61.2759 33.5001 60.9998 33.5001H55.4998C54.9475 33.5001 54.4998 33.0523 54.4998 32.5001V20.4191C54.4998 19.7275 55.1848 19.2447 55.8361 19.4773L60.8361 21.263C61.2341 21.4052 61.4998 21.7822 61.4998 22.2048Z" fill="#C2DEFF"/>
<path d="M57.5361 29.7842H58.2861" stroke="white" stroke-width="1.5" stroke-linecap="round" stroke-linejoin="round"/>
<path d="M57.5361 25.1164H58.2861" stroke="white" stroke-width="1.5" stroke-linecap="round" stroke-linejoin="round"/>
<path d="M46.7476 30.0836H45.9976" stroke="white" stroke-width="1.5" stroke-linecap="round" stroke-linejoin="round"/>
<path d="M55.6012 32.6844V14.8165C55.6012 14.6883 55.5503 14.5653 55.4596 14.4747C55.369 14.384 55.246 14.3331 55.1178 14.3331H49.3171C49.1889 14.3331 49.066 14.384 48.9753 14.4747C48.8847 14.5653 48.8337 14.6883 48.8337 14.8165V32.6844" fill="white"/>
<path d="M52.001 18.2501H52.751" stroke="#5AA5FA" stroke-width="1.5" stroke-linecap="round" stroke-linejoin="round"/>
<path d="M52.001 25.334H52.751" stroke="#C2DEFF" stroke-width="1.5" stroke-linecap="round" stroke-linejoin="round"/>
<path d="M52.001 30.0836H52.751" stroke="#C2DEFF" stroke-width="1.5" stroke-linecap="round" stroke-linejoin="round"/>
<path d="M61.9998 33.3336L41.9998 33.3336" stroke="white" stroke-width="1.5" stroke-linecap="round" stroke-linejoin="round"/>
</svg>
