<svg width="111" height="48" viewBox="0 0 111 48" fill="none" xmlns="http://www.w3.org/2000/svg">
<circle opacity="0.4" cx="89" cy="24" r="22" fill="#00B28C"/>
<path d="M82.5833 31.3334L82.681 30.7047C82.8569 29.5742 83.5362 28.5759 84.6031 28.1629C85.7974 27.7007 87.5198 27.1967 89.3525 27.1967C91.1852 27.1967 92.9076 27.7007 94.1018 28.1629C95.1688 28.5759 95.8481 29.5742 96.0239 30.7047L96.1217 31.3334" stroke="white" stroke-width="1.46667" stroke-linecap="round" stroke-linejoin="round"/>
<path d="M89.3525 24.1881C91.4294 24.1881 93.1132 22.5044 93.1132 20.4274C93.1132 18.3505 91.4294 16.6667 89.3525 16.6667C87.2755 16.6667 85.5918 18.3505 85.5918 20.4274C85.5918 22.5044 87.2755 24.1881 89.3525 24.1881Z" stroke="white" stroke-width="1.46667" stroke-linecap="round" stroke-linejoin="round"/>
<circle opacity="0.4" cx="22" cy="24" r="22" fill="#00B28C"/>
<path d="M15.5833 31.3334L15.681 30.7047C15.8569 29.5742 16.5362 28.5759 17.6031 28.1629C18.7974 27.7007 20.5198 27.1967 22.3525 27.1967C24.1852 27.1967 25.9076 27.7007 27.1018 28.1629C28.1688 28.5759 28.8481 29.5742 29.0239 30.7047L29.1217 31.3334" stroke="white" stroke-width="1.46667" stroke-linecap="round" stroke-linejoin="round"/>
<path d="M22.3525 24.1881C24.4294 24.1881 26.1132 22.5044 26.1132 20.4274C26.1132 18.3505 24.4294 16.6667 22.3525 16.6667C20.2755 16.6667 18.5918 18.3505 18.5918 20.4274C18.5918 22.5044 20.2755 24.1881 22.3525 24.1881Z" stroke="white" stroke-width="1.46667" stroke-linecap="round" stroke-linejoin="round"/>
<circle cx="55" cy="24" r="24" fill="#FA8A34"/>
<path d="M64.7538 25.6308C64.6923 25.6308 64.6308 25.6308 64.6308 25.6308L55.7077 27.3538L52.6308 26.1231L56.6923 25.0769C57.1846 24.9538 57.5538 24.5231 57.5538 24.0308C57.5538 23.5385 57.1231 23.0462 56.5692 22.9846L52.8769 23.0462C52.3231 23.0462 51.7692 22.9231 51.2769 22.6769C50.3538 22.2462 49.4923 22 48.6923 22C48.0769 22 47.4 22.1231 46.9692 22.3077C46.552 22.5163 45.8695 23.0343 45.2965 23.4497C45.1116 23.5838 45 23.7976 45 24.026V28.9666C45 29.4562 45.3544 29.8738 45.8375 29.9533L55.4615 31.5385C55.5846 31.6 55.8923 31.6 56.0154 31.6C56.3846 31.6 56.6923 31.5385 57 31.4154L65.2462 27.7846C65.8 27.5385 66.0462 26.9231 65.8615 26.3692C65.6769 25.9385 65.2461 25.6308 64.7538 25.6308Z" fill="white"/>
<circle cx="59.5" cy="18.5" r="2.8" fill="white" stroke="#6ED4BE" stroke-width="0.6"/>
</svg>
