<svg width="104" height="49" viewBox="0 0 104 49" fill="none" xmlns="http://www.w3.org/2000/svg">
<circle cx="54" cy="25" r="24" fill="white"/>
<g opacity="0.64">
<rect x="60" y="2" width="43.9999" height="43.9999" rx="22" fill="#617DEA"/>
<rect x="60" y="2" width="43.9999" height="43.9999" rx="22" fill="#49C1B5"/>
<path d="M84.0498 20.9449V18.4735H89.7014V14.7079H74.3121V18.4735H79.9643V20.9429C75.3707 21.1539 71.9167 22.0636 71.9167 23.1535C71.9167 24.2433 75.3723 25.1531 79.9643 25.3654V33.2817H84.0512V25.3647C88.6365 25.1531 92.0834 24.244 92.0834 23.1551C92.0834 22.0663 88.6365 21.1572 84.0512 20.9455L84.0498 20.9449ZM84.0512 24.6942V24.6922C83.9359 24.6995 83.3434 24.7351 82.0243 24.7351C80.9697 24.7351 80.2278 24.7052 79.9663 24.6915V24.6949C75.9079 24.5151 72.8787 23.8084 72.8787 22.9627C72.8787 22.1171 75.9083 21.4114 79.9663 21.2313V23.9908C80.2321 24.0091 80.9923 24.0539 82.0416 24.0539C83.3019 24.0539 83.9355 24.0014 84.0518 23.9908V21.2313C88.1022 21.4117 91.1245 22.1191 91.1245 22.9618C91.1245 23.8044 88.1009 24.5121 84.0518 24.6925" fill="white"/>
</g>
<g opacity="0.63">
<rect y="2" width="44.0001" height="44.0001" rx="22" fill="#617DEA"/>
<path d="M21.71 11.1667V20.3167L29.4432 23.7727L21.71 11.1667Z" fill="white" fill-opacity="0.602"/>
<path d="M21.7125 11.1667L13.9792 23.7727L21.7125 20.3167V11.1667Z" fill="white"/>
<path d="M21.71 29.6993V35.9165L29.4477 25.2101L21.71 29.6993Z" fill="white" fill-opacity="0.602"/>
<path d="M21.7125 35.9165V29.6993L13.9792 25.2101L21.7125 35.9165Z" fill="white"/>
<path d="M21.71 28.2611L29.4432 23.7718L21.71 20.3158V28.2611Z" fill="white" fill-opacity="0.2"/>
<path d="M13.9792 23.7718L21.7125 28.2611V20.3158L13.9792 23.7718Z" fill="white" fill-opacity="0.602"/>
</g>
<rect x="27.9998" width="47.9999" height="47.9999" rx="24" fill="#FA8A34"/>
<path d="M60.2066 21.8444C60.55 19.5327 58.8026 18.29 56.4134 17.461L57.1884 14.3296L55.2961 13.8545L54.5415 16.9035C54.0441 16.7786 53.5331 16.6608 53.0254 16.5441L53.7854 13.475L51.8941 13L51.1185 16.1304C50.7068 16.0359 50.3025 15.9425 49.9102 15.8443L49.9123 15.8345L47.3026 15.1781L46.7992 17.214C46.7992 17.214 48.2033 17.5381 48.1736 17.5582C48.94 17.7509 49.0785 18.2618 49.0554 18.6668L48.1725 22.2342C48.2254 22.2478 48.2938 22.2673 48.3693 22.2977C48.3062 22.282 48.2388 22.2646 48.1693 22.2478L46.9318 27.2452C46.838 27.4797 46.6004 27.8315 46.0646 27.698C46.0835 27.7257 44.6892 27.3521 44.6892 27.3521L43.7498 29.5341L46.2123 30.1524C46.6704 30.2681 47.1194 30.3891 47.5613 30.5031L46.7782 33.6704L48.6684 34.1455L49.444 31.0118C49.9603 31.153 50.4615 31.2833 50.952 31.406L50.1791 34.525L52.0714 35L52.8546 31.8387C56.0814 32.4538 58.5078 32.2057 59.5291 29.2659C60.3522 26.8988 59.4882 25.5334 57.7904 24.6431C59.0268 24.3559 59.9582 23.5366 60.2066 21.8444ZM55.883 27.9515C55.2982 30.3186 51.3417 29.0389 50.0589 28.7181L51.0981 24.522C52.3808 24.8445 56.4942 25.4829 55.883 27.9515ZM56.4683 21.8102C55.9348 23.9634 52.6417 22.8694 51.5734 22.6012L52.5155 18.7955C53.5838 19.0637 57.024 19.5642 56.4683 21.8102Z" fill="white"/>
</svg>
