<svg width="104" height="48" viewBox="0 0 104 48" fill="none" xmlns="http://www.w3.org/2000/svg">
<rect x="60.0002" y="2" width="44" height="44" rx="22" fill="#06070A"/>
<path d="M79.2505 16.801V12.5891H84.4829V16.801H79.2505ZM79.2505 35.9167V18.6543H84.4829V35.9102L79.2505 35.9167Z" fill="white"/>
<g opacity="0.72">
<rect y="2" width="44.0001" height="44.0001" rx="22" fill="#193989"/>
<g clip-path="url(#clip0_2_1032)">
<path d="M25.5844 26.8485L24.7897 27.6488L24.0169 26.854L23.6003 25.6174L22.4164 25.209L22.4141 24.439L21.6441 24.4413L21.2381 26.3952L21.6547 27.6593L19.8424 28.4623L19.2897 27.6671L19.6719 26.8678L19.6692 26.0153L18.4867 26.0194L16.9247 27.6744L15.7412 27.2936L15.7353 25.6435L13.6719 25.32L12.1896 26.1225L11.3082 25.7403L11.3027 24.0632L12.0989 23.675L15.2563 22.0974L15.7247 22.481L16.904 21.2949L16.9013 20.5244L18.4633 18.9519L19.2558 17.2716L20.4314 15.3154L22.383 14.924L23.1805 14.9213L23.1828 15.6913L24.7558 17.2537L24.7608 18.9312L27.2166 21.261L29.5866 22.8477L30.77 23.229L31.1867 24.4102L32.7569 25.1756L31.9617 25.9749L31.1922 25.9777L31.1894 25.1806L30.0055 24.7988L28.0191 22.8532L26.4489 22.0607L24.7636 19.7017L23.9913 18.9335L24.3721 17.6676L23.1855 16.4888L22.3903 17.2611L22.3958 18.939L21.6286 19.7118L23.2011 21.2738L22.4064 22.0736L24.0064 23.636L24.0091 24.4335L24.7842 25.9983L25.5817 25.996L26.4589 25.1958L26.0455 24.8121L25.5739 23.631L26.4539 23.6282L27.2289 25.1935L28.0292 25.9882L25.5844 26.8485Z" fill="white"/>
<path d="M11.3321 33.0554L11.3184 28.8754L12.197 28.4877L12.2121 33.0531L11.3321 33.0554Z" fill="white"/>
<path d="M15.8423 33.0407C14.9623 33.0435 14.9623 33.0435 14.9623 33.0435C14.9559 31.228 14.9559 31.228 14.9559 31.228C14.954 30.6785 14.734 30.5139 14.404 30.5148C14.019 30.5162 13.8545 30.6821 13.8563 31.2317C13.8623 33.0467 13.8623 33.0467 13.8623 33.0467C13.0102 33.0494 13.0102 33.0494 13.0102 33.0494C12.9988 29.7224 12.9988 29.7224 12.9988 29.7224C13.8513 29.7196 13.8513 29.7196 13.8513 29.7196C13.8522 29.9671 13.8522 29.9671 13.8522 29.9671C14.0163 29.8017 14.2358 29.6633 14.6483 29.6619C15.4183 29.6591 15.8327 30.2078 15.8359 31.1428" fill="white"/>
<path d="M19.3786 29.7013C18.2071 33.0334 18.2071 33.0334 18.2071 33.0334C17.327 33.0361 17.327 33.0361 17.327 33.0361C16.1335 29.7123 16.1335 29.7123 16.1335 29.7123C17.0965 29.7091 17.0965 29.7091 17.0965 29.7091C17.5686 31.2198 17.5686 31.2198 17.5686 31.2198C17.6525 31.5223 17.7084 31.8523 17.7909 31.9893C17.7904 31.8518 17.8725 31.5213 17.9531 31.2184C18.4161 29.7045 18.4161 29.7045 18.4161 29.7045" fill="white"/>
<path d="M21.7479 30.9589C21.6645 30.6564 21.4985 30.4098 21.1135 30.4107C20.701 30.4121 20.482 30.6601 20.4004 30.9635M21.2047 33.0778C20.2418 33.081 19.525 32.3958 19.5217 31.3508C19.5181 30.3328 20.2308 29.643 21.1108 29.6403C22.0458 29.6375 22.5985 30.4057 22.6018 31.3407C22.6022 31.5052 22.6022 31.5052 22.6027 31.6707C20.4027 31.678 20.4027 31.678 20.4027 31.678C20.4865 32.0626 20.872 32.2267 21.202 32.2253C21.3395 32.2248 21.6695 32.1409 21.8336 31.9759C22.4404 32.4691 22.4404 32.4691 22.4404 32.4691C22.1398 32.9375 21.5077 33.0769 21.2047 33.0778Z" fill="white"/>
<path d="M24.5024 32.2973C24.8049 32.2964 24.9699 32.2134 24.9694 32.0484C24.9685 31.8289 24.666 31.7468 24.501 31.7473C23.868 31.5846 23.0701 31.5044 23.0673 30.6523C23.0655 30.0198 23.6966 29.6321 24.4116 29.6303C24.8796 29.6289 25.3471 29.765 25.6785 30.0116C25.2128 30.6455 25.2128 30.6455 25.2128 30.6455C24.9648 30.4814 24.6619 30.3998 24.4144 30.4007C24.0294 30.4016 23.9469 30.4846 23.9473 30.6496C23.9478 30.7871 24.4153 30.8678 24.6637 30.9498C25.2967 31.1125 25.8471 31.2757 25.8494 31.9632C25.8522 32.6782 25.1381 33.065 24.4231 33.0678C23.8731 33.0696 23.4051 32.8514 22.9917 32.6053C23.4849 32.0535 23.4849 32.0535 23.4849 32.0535C23.7869 32.2171 24.1174 32.2987 24.5024 32.2973Z" fill="white"/>
<path d="M27.9615 30.4709C27.494 30.4723 27.1103 30.8586 27.1117 31.3261C27.1131 31.8211 27.4999 32.2048 27.967 32.2034C28.297 32.2025 28.516 32.0366 28.6806 31.8161C29.3974 32.3634 29.3974 32.3634 29.3974 32.3634C29.0688 32.7497 28.5197 33.0536 27.9697 33.0554C27.0347 33.0582 26.2349 32.2914 26.2317 31.3289C26.2285 30.3939 27.0237 29.6211 27.9587 29.6179C28.5087 29.6161 29.0596 29.9168 29.391 30.3008C28.6774 30.8531 28.6774 30.8531 28.6774 30.8531C28.5119 30.6345 28.291 30.47 27.9615 30.4709Z" fill="white"/>
<path d="M32.1443 31.31C32.1429 30.842 31.8115 30.4584 31.344 30.4598C30.794 30.4616 30.4934 30.8475 30.4943 31.3155C30.4961 31.8105 30.7995 32.1941 31.3495 32.1927C31.8175 32.1909 32.1461 31.805 32.1443 31.31ZM32.9968 31.3068C33 32.2693 32.3152 33.0411 31.3523 33.0443C30.4173 33.0475 29.6175 32.2803 29.6143 31.3178C29.6111 30.3828 30.4063 29.6096 31.3413 29.6068C32.3038 29.6041 32.9936 30.3718 32.9968 31.3068Z" fill="white"/>
</g>
</g>
<rect x="28.0002" width="47.9999" height="47.9999" rx="24" fill="#96151D"/>
<path d="M40.5002 12.0385V12.2828C41.8636 12.6174 42.5286 14.9967 42.5286 14.9967L47.8106 29.7238C49.2669 33.8686 52.0032 34.6846 52.0032 34.6846L55.3819 36L63.5002 12H57.0754V12.195C59.4041 13.1024 58.5341 15.3938 58.5341 15.3938L54.2771 29.0113L48.5209 12.0385H40.5002Z" fill="white"/>
<defs>
<clipPath id="clip0_2_1032">
<rect width="22.0001" height="18.3334" fill="white" transform="translate(11.0002 14.8334)"/>
</clipPath>
</defs>
</svg>
