<svg width="104" height="48" viewBox="0 0 104 48" fill="none" xmlns="http://www.w3.org/2000/svg">
<g opacity="0.64">
<rect x="60" y="1.99994" width="44.0001" height="44.0001" rx="22" fill="#E2ED5C"/>
<path d="M83.4104 13.4584H79.6621C79.2681 13.4584 78.9181 13.7102 78.793 14.0838L75.4929 23.9319C75.2939 24.5257 75.7358 25.1398 76.3621 25.1398H79.0874C79.6774 25.1398 80.1138 25.6891 79.9803 26.2638L78.2528 33.7024C78.0258 34.6802 79.3093 35.2592 79.8921 34.4419L88.3006 22.6495C88.7333 22.0427 88.2995 21.2006 87.5543 21.2006H83.0801C82.4354 21.2006 81.9921 20.5527 82.2258 19.9518L84.2648 14.7073C84.4984 14.1064 84.0551 13.4584 83.4104 13.4584Z" fill="#06070A"/>
</g>
<g opacity="0.63">
<rect y="2.00006" width="43.9999" height="43.9999" rx="22" fill="#F7D16D"/>
<path d="M29.677 25.8687C29.677 19.1458 22.207 13.9168 22.207 13.9168C22.207 13.9168 14.7371 19.1458 14.7371 25.8687C14.7371 27.8499 15.5241 29.7499 16.925 31.1508C18.3258 32.5517 20.2259 33.3387 22.207 33.3387C24.1882 33.3387 26.0882 32.5517 27.4891 31.1508C28.89 29.7499 29.677 27.8499 29.677 25.8687Z" fill="#606773"/>
<path d="M26.689 25.8687C26.689 27.0574 26.2168 28.1974 25.3763 29.0379C24.5357 29.8785 23.3957 30.3507 22.207 30.3507" stroke="#C1C4CB" stroke-width="1.375" stroke-linecap="round" stroke-linejoin="round"/>
</g>
<rect x="27.9998" width="47.9999" height="47.9999" rx="24" fill="#CB9655"/>
<path d="M54.3817 15.5001H49.6178C49.239 15.5001 48.8928 15.7141 48.7234 16.0528L46.2234 21.0528C45.8909 21.7177 46.3744 22.5001 47.1178 22.5001H56.8817C57.6251 22.5001 58.1086 21.7177 57.7761 21.0528L55.2761 16.0528C55.1068 15.7141 54.7605 15.5001 54.3817 15.5001Z" fill="white"/>
<path d="M47.3817 25.0001H42.6178C42.239 25.0001 41.8928 25.2141 41.7234 25.5528L39.2234 30.5528C38.8909 31.2177 39.3744 32.0001 40.1178 32.0001H49.8817C50.6251 32.0001 51.1086 31.2177 50.7761 30.5528L48.2761 25.5528C48.1068 25.2141 47.7605 25.0001 47.3817 25.0001Z" fill="white"/>
<path d="M61.3817 25.0001H56.6178C56.239 25.0001 55.8928 25.2141 55.7234 25.5528L53.2234 30.5528C52.8909 31.2177 53.3744 32.0001 54.1178 32.0001H63.8817C64.6251 32.0001 65.1086 31.2177 64.7761 30.5528L62.2761 25.5528C62.1068 25.2141 61.7605 25.0001 61.3817 25.0001Z" fill="white"/>
</svg>
