<svg width="24" height="24" viewBox="0 0 24 24" fill="none" xmlns="http://www.w3.org/2000/svg">
<path d="M15.375 7.87486L18 7.87487C19.0933 7.87588 20.1415 8.31092 20.9143 9.0844C21.6871 9.85788 22.1211 10.9065 22.1211 11.9999C22.1211 13.0932 21.6871 14.1419 20.9143 14.9153C20.1415 15.6888 19.0933 16.1238 18 16.1249L15.3749 16.1249" stroke="white" stroke-width="1.5" stroke-linecap="round" stroke-linejoin="round"/>
<path d="M8.62487 16.1251L5.99987 16.1251C5.45795 16.1254 4.92128 16.019 4.42052 15.8118C3.91976 15.6047 3.46472 15.3009 3.08141 14.9178C2.6981 14.5348 2.39403 14.0799 2.18657 13.5793C1.97912 13.0786 1.87234 12.542 1.87234 12.0001C1.87234 11.4582 1.97912 10.9216 2.18657 10.421C2.39403 9.92033 2.69811 9.46548 3.08142 9.0824C3.46473 8.69933 3.91976 8.39554 4.42052 8.18838C4.92128 7.98123 5.45795 7.87478 5.99987 7.87512L8.62487 7.87512" stroke="white" stroke-width="1.5" stroke-linecap="round" stroke-linejoin="round"/>
<path d="M9.49994 12H14.9999" stroke="white" stroke-width="1.5" stroke-linecap="round"/>
</svg>
