<svg width="27" height="27" viewBox="0 0 27 27" fill="none" xmlns="http://www.w3.org/2000/svg">
<path fill-rule="evenodd" clip-rule="evenodd" d="M5.0625 12.8807C5.0625 8.51589 8.60085 4.97754 12.9656 4.97754C17.3304 4.97754 20.8688 8.51589 20.8688 12.8807C20.8688 17.2454 17.3304 20.7838 12.9656 20.7838C8.60085 20.7838 5.0625 17.2454 5.0625 12.8807ZM12.9656 3.29004C7.66887 3.29004 3.375 7.58391 3.375 12.8807C3.375 18.1774 7.66887 22.4713 12.9656 22.4713C15.3106 22.4713 17.459 21.6297 19.1253 20.232L22.2108 23.3175C22.5403 23.647 23.0745 23.647 23.404 23.3175C23.7336 22.988 23.7336 22.4538 23.404 22.1243L20.3184 19.0387C21.7152 17.3726 22.5563 15.2249 22.5563 12.8807C22.5563 7.58391 18.2624 3.29004 12.9656 3.29004Z" fill="#606773"/>
</svg>
