<svg width="24" height="26" viewBox="0 0 24 26" fill="none" xmlns="http://www.w3.org/2000/svg">
<path d="M3 21.5232L3.13542 20.5864C3.30957 19.3816 4.00741 18.3058 5.12892 17.8324C6.43401 17.2814 8.34683 16.6667 10.3846 16.6667C12.4224 16.6667 14.3352 17.2814 15.6403 17.8324C16.7618 18.3058 17.4597 19.3816 17.6338 20.5864L17.7692 21.5232" stroke="#00A385" stroke-width="1.6" stroke-linecap="round" stroke-linejoin="round"/>
<path d="M19.2036 10.4056V14.721" stroke="#00A385" stroke-width="1.5" stroke-linecap="round" stroke-linejoin="round"/>
<path d="M21.2497 12.5632H17.1597" stroke="#00A385" stroke-width="1.5" stroke-linecap="round" stroke-linejoin="round"/>
<path d="M10.3848 13.1346C12.6506 13.1346 14.4874 11.158 14.4874 8.71964C14.4874 6.28129 12.6506 4.30463 10.3848 4.30463C8.11901 4.30463 6.28223 6.28129 6.28223 8.71964C6.28223 11.158 8.11901 13.1346 10.3848 13.1346Z" stroke="#00A385" stroke-width="1.6" stroke-linecap="round" stroke-linejoin="round"/>
</svg>
